<svg xmlns="http://www.w3.org/2000/svg" width="210" height="210"><path d="M136.567 28.532c-15.109 4.146-34.495 19.251-48.729 37.968-12.771 16.792-25.972 41.426-31.244 58.3-6.809 21.794-4.514 40.917 6.019 50.165C67.896 179.603 71.904 181 79.93 181c11.416 0 22.802-5.454 35.29-16.902 7.229-6.627 14.78-16.611 14.78-19.542 0-2.622-2.877-5.556-5.448-5.556-.985 0-5.767 3.784-10.627 8.408-17.73 16.873-34.088 20.717-37.98 8.926-4.687-14.203 12.154-57.355 33.401-85.587C120.841 55.474 138.493 41 145.625 41c3.349 0 5.497 2.642 4.735 5.822-2.612 10.909-8.428 20.766-15.35 26.018-3.636 2.759-4.424 3.907-4.146 6.034C131.721 85.417 136.21 90 141.762 90c13.848 0 29.39-24.443 27.978-44-.582-8.053-3.408-13.135-9.191-16.524-3.524-2.065-5.454-2.461-11.637-2.387-4.077.05-9.632.699-12.345 1.443" fill="undefined" fill-rule="evenodd"/></svg>