<svg xmlns="http://www.w3.org/2000/svg" width="212" height="213"><path d="M90 7.691c-3.318.555-12.239 3.388-13.5 4.286-.55.392-3.25 1.297-6 2.01-2.75.714-8.654 3.242-13.12 5.619-4.466 2.376-8.404 4.037-8.75 3.691-.347-.347-.63.108-.63 1.011 0 .902-1.237 2.293-2.75 3.09-1.513.797-5.093 3.958-7.956 7.026C34.43 37.491 31.715 40 31.259 40c-.455 0-1.588 1.286-2.516 2.858-.929 1.572-3.448 4.987-5.598 7.589-4.123 4.99-13.063 21.435-15.62 28.732-1.408 4.02-1.386 4.427.308 5.841 1.001.836 1.636 2.073 1.41 2.75-.225.676.034 1.23.576 1.23C11.151 89 13 83.453 13 79.458c0-1.961.593-3.472 1.5-3.82.825-.316 1.493-1.152 1.485-1.857-.011-.896-.307-.83-.985.219-.788 1.219-.972 1.09-.985-.691-.017-2.504 1.58-3.949 2.283-2.065.34.91.6.842.944-.244 2.509-7.919 3.55-10.147 6.77-14.497 2.038-2.752 4.541-6.465 5.562-8.253 1.021-1.787 2.435-3.25 3.142-3.25.706 0 1.284-.477 1.284-1.059s-.45-.781-1-.441-1 .168-1-.382c0-1.607 2.156-2.483 2.95-1.198.476.77 1.559-.046 3.138-2.366 1.327-1.947 2.975-3.543 3.662-3.547C42.438 36.003 43 35.55 43 35c0-.55.653-1 1.45-1 .798 0 3.097-1.97 5.11-4.378 2.227-2.664 4.301-4.23 5.3-4.001 1.002.229 2.418-.85 3.64-2.778 1.1-1.735 3.125-3.845 4.5-4.691 2.125-1.307 2.013-1.014-.75 1.953-3.767 4.045-4.018 4.928-1.251 4.395 2.253-.434 7.005-3.5 5.424-3.5-.563 0-1.675.559-2.473 1.243-.797.683-.661.361.303-.717.964-1.078 2.764-2.005 4-2.059 1.236-.054 4.363-.723 6.949-1.487 3.757-1.109 4.661-1.799 4.5-3.434-.162-1.645.462-2.109 3.183-2.369 2.741-.262 3.27-.024 2.782 1.25-.683 1.777 1.332 2.107 4.097.67 4.69-2.438 9.919-3.166 16.236-2.262 4.166.597 7.169.58 8.364-.048 1.722-.905 4.155-.768 10.636.597 1.375.289 4.225.799 6.334 1.132 2.666.421 3.675 1.019 3.313 1.962-.336.876.876 1.914 3.427 2.935 2.172.869 4.281 1.528 4.687 1.465 2.712-.421 5.469.441 7.912 2.473 1.555 1.293 3.399 2.153 4.097 1.91 1.829-.635-3.01-4.212-7.302-5.398-1.926-.531-5.631-2.262-8.234-3.845-8.16-4.963-37.379-9.312-49.234-7.327M115.5 13c-.34.55.11 1 1 1s1.34-.45 1-1c-.34-.55-.79-1-1-1-.21 0-.66.45-1 1m41.833 12.456c0 .801.383 1.22.85.931.467-.289.591-.944.274-1.456-.808-1.308-1.124-1.161-1.124.525M52 29.059c0 .582.45.781 1 .441s1-.816 1-1.059S53.55 28 53 28s-1 .477-1 1.059m110.5 3.41c1.65 1.352 3.338 2.475 3.75 2.495 1.112.053.91-2.747-.25-3.464-.55-.34-1-.109-1 .512 0 .654-.663.468-1.571-.441-.865-.864-2.102-1.569-2.75-1.566-.649.003.171 1.112 1.821 2.464m9 5.531c.34.55.816 1 1.059 1s.441-.45.441-1-.477-1-1.059-1-.781.45-.441 1m-68 14.824c-7.294 2.567-12.919 6.499-17.396 12.163-9.136 11.558-12.08 22.53-11.677 43.513.215 11.206.604 13.914 2.819 19.623 3.316 8.55 6.227 13.075 12.865 19.998 8.438 8.801 18.975 13.065 32.604 13.193 5.734.054 6.707-.221 8.316-2.355 2.023-2.682 2.467-8.617.523-7.004-.828.687-1.03.001-.738-2.504.397-3.401-.169-3.964-3.55-3.529-.679.087-1.011-.422-.739-1.132.38-.99-1.461-1.29-7.93-1.29-7.761 0-8.764-.238-12.729-3.025-9.029-6.346-13.372-15.256-14.502-29.751-.659-8.447 1.68-23.78 4.653-30.5 1.604-3.625 1.685-4.324.447-3.849-1.22.468-1.313.208-.484-1.342.566-1.057 1.546-2.241 2.178-2.632.773-.478.879-.251.323.694-.627 1.066-.363 1.033 1.095-.135 3.617-2.897 9.489-4.96 14.206-4.99 3.778-.025 4.357-.239 2.914-1.079-.992-.577-3.692-.787-6-.466-3.648.507-3.87.438-1.698-.524 3.09-1.368 13.791-1.711 16.5-.528 1.657.723 1.614.585-.25-.807-1.237-.924-2.25-2.167-2.25-2.762 0-1.534-3.132-3.722-5.5-3.842l-2-.103 2-.859c1.1-.473 1.438-.891.75-.93-.687-.038-1.25-.489-1.25-1 0-.574 1.243-.574 3.243 0 4.737 1.358 6.735.987 3.257-.606-1.65-.756-5.025-1.401-7.5-1.434-3.285-.044-4.095-.322-3-1.03 2.61-1.687-3.99-1.114-9.5.824M89.212 63.386C85.578 67.329 81.283 74 82.379 74c.237 0 1.582-1.963 2.988-4.363 1.406-2.399 4.164-5.774 6.13-7.5C93.462 60.412 94.661 59 94.162 59c-.499 0-2.726 1.974-4.95 4.386m6.038.534C92.362 66.606 90 69.399 90 70.125s.706.312 1.568-.919c.863-1.232 1.881-2.047 2.261-1.811.381.235 1.562-.207 2.623-.984 1.384-1.012 1.523-1.418.489-1.437-.792-.015.359-.922 2.559-2.017 2.2-1.094 3.1-1.756 2-1.471-1.971.511-1.972.497-.059-.984 1.383-1.07 1.527-1.497.5-1.484-.792.009-3.803 2.215-6.691 4.902m-4.304.83L87.5 68.5l3.75-3.446c2.063-1.896 3.75-3.583 3.75-3.75 0-.764-.846-.044-4.054 3.446m4.926 7c-1.243 1.586-1.208 1.621.378.378C97.916 70.821 98.445 70 97.622 70c-.207 0-.995.787-1.75 1.75m-3.413 9.317c-.363.586-.445 1.281-.183 1.543s.743-.218 1.069-1.067c.676-1.762.1-2.072-.886-.476M6.231 91.115c-1.241 5.823-.917 23.336.58 31.305.508 2.706.728 6.373.488 8.149-.239 1.776.026 3.514.589 3.862.564.348.795 1.232.514 1.963-.659 1.717 6.597 15.984 13.013 25.588 5.68 8.501 16.695 20.431 20.924 22.663 1.562.825 4.189 2.704 5.837 4.177 1.649 1.473 7.121 4.855 12.161 7.516 7.709 4.071 9.781 4.757 13.06 4.326 2.545-.335 4.366-.043 5.251.841 3.303 3.303 26.312 5.186 38.852 3.178 2.75-.44 6.542-.988 8.427-1.218 1.884-.231 3.684-.81 4-1.288.315-.478 1.923-1.194 3.573-1.59 4.426-1.064 16.663-7.126 19.208-9.514 1.215-1.14 2.686-2.073 3.27-2.073 3.423 0 19.402-13.64 23.915-20.414 8.637-12.964 12.47-20.489 16.261-31.921 2.955-8.913 4.959-24.665 3.138-24.665-1.618 0-3.257 4.021-4.299 10.545-1.889 11.823-11.117 33.001-16.539 37.955-.601.55-1.828 2.188-2.725 3.64-3.965 6.419-21.403 22.86-24.245 22.86-.331 0-2.341 1.398-4.466 3.106-2.126 1.708-4.341 2.813-4.921 2.454-1.132-.7-4.705.905-6.898 3.098-.738.738-2.638 1.342-4.221 1.342-4.058 0-12.978 2.014-12.978 2.931 0 .833-17.17.534-26-.453-3.025-.338-6.85-.717-8.5-.84-1.65-.124-3.983-.768-5.184-1.432-1.202-.663-3.353-1.206-4.782-1.206-1.428 0-2.856-.675-3.172-1.5-.317-.825-1.585-1.5-2.819-1.5s-3.998-1.266-6.143-2.814c-2.145-1.548-5.943-3.83-8.44-5.072s-6.454-4.026-8.793-6.186c-2.34-2.161-4.572-3.936-4.96-3.945-.389-.009-2.507-1.88-4.707-4.157-2.2-2.277-3.437-3.818-2.75-3.424 2.647 1.516 1.057-1.12-3.266-5.415-2.483-2.468-5.608-6.807-6.943-9.643-1.335-2.836-2.903-5.45-3.484-5.809-.582-.359-1.057-1.103-1.057-1.653s.52-.679 1.155-.287c1.372.849.33-1.178-2.001-3.888-1.403-1.631-1.388-1.734.163-1.139 1.281.492 1.552.254 1.09-.951-.339-.883-.97-1.387-1.402-1.12-.432.267-1.1-1.198-1.485-3.256-.384-2.057-1.136-4.27-1.67-4.917-.535-.647-.873-1.772-.753-2.5s-.052-1.999-.383-2.824c-1.427-3.556-2.565-16.085-2.09-23 .347-5.044.064-8.772-.865-11.385l-1.38-3.884-1.148 5.384M96 137.393c0 .216.698.661 1.552.989.89.341 1.291.173.941-.393-.587-.951-2.493-1.406-2.493-.596" fill="undefined" fill-rule="evenodd"/></svg>